# AST/ASF file generated using VICON BodyLanguage
# -----------------------------------------------
:version 1.10
:name VICON
:units
  mass 1.0
  length 0.45
  angle deg
:documentation
   .ast/.asf automatically generated from VICON data using
   VICON BodyBuilder and BodyLanguage model FoxedUp or BRILLIANT.MOD
:root
   order TX TY TZ RX RY RZ
   axis XYZ
   position 0 0 0  
   orientation 0 0 0 
:bonedata
  begin
     id 1 
     name lhipjoint
     direction 0.611804 -0.747784 0.257906 
     length 2.29243 
     axis 0 0 0  XYZ
  end
  begin
     id 2 
     name lfemur
     direction 0.34202 -0.939693 0  
     length 7.31159  
     axis 0 0 20  XYZ
    dof rx ry rz
    limits (-160.0 20.0)
           (-70.0 70.0)
           (-60.0 70.0)
  end
  begin
     id 3 
     name ltibia
     direction 0.34202 -0.939693 0   
     length 7.33391   
     axis 0 0 20   XYZ
    dof rx
    limits (-10.0 170.0)
  end
  begin
     id 4 
     name lfoot
     direction 0.122263 -0.335914 0.933924   
     length 1.76083   
     axis -90 7.62852e-016 20   XYZ
    dof rx rz
    limits (-45.0 90.0)
           (-70.0 20.0)
  end
  begin
     id 5 
     name ltoes
     direction 1.53533e-011 -4.2177e-011 1   
     length 0.879206   
     axis -90 7.62852e-016 20   XYZ
    dof rx
    limits (-90.0 20.0)
  end
  begin
     id 6 
     name rhipjoint
     direction -0.646469 -0.721248 0.248754   
     length 2.37677  
     axis 0 0 0  XYZ 
  end
  begin
     id 7 
     name rfemur
     direction -0.34202 -0.939693 0   
     length 7.18623   
     axis 0 0 -20   XYZ
    dof rx ry rz
    limits (-160.0 20.0)
           (-70.0 70.0)
           (-70.0 60.0)
  end
  begin
     id 8 
     name rtibia
     direction -0.34202 -0.939693 0   
     length 7.36567   
     axis 0 0 -20   XYZ
    dof rx
    limits (-10.0 170.0)
 end
 begin
     id 9 
     name rfoot
     direction -0.126681 -0.348054 0.928876   
     length 1.71902  
     axis -90 -7.62852e-016 -20   XYZ
    dof rx rz
    limits (-45.0 90.0)
           (-20.0 70.0)
  end
  begin
     id 10 
     name rtoes
     direction -1.53551e-011 -4.21898e-011 1   
     length 0.857792   
     axis -90 -7.62852e-016 -20   XYZ
    dof rx
    limits (-90.0 20.0)
  end
  begin
     id 11 
     name lowerback
     direction 0.0106509 0.999778 0.0181844   
     length 2.07668   
     axis 0 0 0   XYZ
    dof rx ry rz
    limits (-20.0 45.0)
           (-30.0 30.0)
           (-30.0 30.0)
  end
  begin
     id 12 
     name upperback
     direction -0.00456018 0.999989 -0.000590935   
     length 2.08011   
     axis 0 0 0   XYZ
    dof rx ry rz
    limits (-20.0 45.0)
           (-30.0 30.0)
           (-30.0 30.0)
  end
  begin
     id 13 
     name thorax
     direction -0.00910382 0.999916 -0.00923765   
     length 2.07397   
     axis 0 0 0   XYZ
    dof rx ry rz
    limits (-20.0 45.0)
           (-30.0 30.0)
           (-30.0 30.0)
  end
  begin
     id 14 
     name lowerneck
     direction 0.00171967 0.99778 0.0665733   
     length 1.67556   
     axis 0 0 0   XYZ
    dof rx ry rz
    limits (-20.0 45.0)
           (-30.0 30.0)
           (-30.0 30.0)
  end
  begin
     id 15 
     name upperneck
     direction -0.0143166 0.991302 -0.130828   
     length 1.68462   
     axis 0 0 0   XYZ
    dof rx ry rz
    limits (-20.0 45.0)
           (-30.0 30.0)
           (-30.0 30.0)
  end
  begin
     id 16
     name head
     direction -0.00606378 0.998665 -0.0512995  
     length 1.69269  
     axis 0 0 0   XYZ
    dof rx ry rz
    limits (-20.0 45.0)
           (-30.0 30.0)
           (-30.0 30.0)
  end
  begin
     id 17 
     name lclavicle
     direction 0.9638 0.179341 0.197297  
     length 4.12888  
     axis 0 0 0   XYZ
    dof ry rz
    limits (-20.0 10.0)
           (0.0 20.0)
  end
  begin
     id 18 
     name lhumerus
     direction 1 -4.48972e-011 -2.47351e-027   
     length 5.01834   
     axis -180 -30 -90   XYZ
    dof rx ry rz
    limits (-60.0 90.0)
           (-90.0 90.0)
           (-90.0 90.0)
  end
  begin
     id 19
     name lradius
     direction 1 -4.48965e-011 1.51591e-026   
     length 3.4869   
     axis -180 -30 -90   XYZ
    dof rx
    limits (-10.0 170.0)
  end
  begin
     id 20
     name lwrist
     direction 1 -4.48957e-011 2.70032e-026   
     length 1.74345   
     axis -1.81515e-014 90 90   XYZ
    dof ry
    limits (-180.0 0.0)
 end
  begin
     id 21 
     name lhand
     direction 1 -4.48951e-011 5.40064e-026   
     length 0.76799   
     axis -3.44607e-014 90 90   XYZ
    dof rx rz
    limits (-90.0 90.0)
           (-45.0 45.0)
  end
  begin
     id 22 
     name lfingers
     direction 1 -4.48971e-011 1.08013e-025   
     length 0.619174   
     axis -6.89214e-014 90 90   XYZ
    dof rx
    limits (0.0 90.0)
  end
  begin
     id 23
     name lthumb
     direction 0.707107 -6.34931e-011 0.707107   
     length 0.889013   
     axis -90 45 2.85299e-015   XYZ
    dof rx rz
    limits (-45.0 45.0)
           (-45.0 45.0)
  end
  begin
     id 24 
     name rclavicle
     direction -0.961409 0.252588 0.109054   
     length 4.04305  
     axis 0 0 0   XYZ 
    dof ry rz
    limits (-10.0 20.0)
           (-20.0 0.0)
  end
  begin
     id 25 
     name rhumerus
     direction -1 -4.4897e-011 1.33872e-017  
     length 4.70164   
     axis -180 30 90   XYZ
    dof rx ry rz
    limits (-90.0 60.0)
           (-90.0 90.0)
           (-90.0 90.0)
  end
  begin
     id 26 
     name rradius
     direction -1 -4.48954e-011 1.83844e-026   
     length 3.49911   
     axis -180 30 90   XYZ
    dof rx
    limits (-10.0 170.0)
  end
  begin
     id 27 
     name rwrist
     direction -1 -4.49008e-011 2.70032e-026   
     length 1.74955   
     axis -1.81515e-014 -90 -90   XYZ
    dof ry
    limits (-180.0 0.0)
  end
  begin
     id 28
     name rhand
     direction -1 -4.48916e-011 5.40064e-026   
     length 0.739335   
     axis -3.44607e-014 -90 -90   XYZ
    dof rx rz
    limits (-90.0 90.0)
           (-45.0 45.0)
  end
  begin
     id 29
     name rfingers
     direction -1 -4.48987e-011 1.08013e-025   
     length 0.596071   
     axis -6.89214e-014 -90 -90   XYZ
    dof rx
    limits (0.0 90.0)
  end
  begin
     id 30
     name rthumb
     direction -0.707107 -6.34935e-011 0.707107   
     length 0.855843   
     axis -90 -45 -2.85299e-015   XYZ
    dof rx rz
    limits (-45.0 45.0)
           (-45.0 45.0)
  end
:hierarchy
  begin
    root lhipjoint rhipjoint lowerback
    lhipjoint lfemur
    lfemur ltibia
    ltibia lfoot
    lfoot ltoes
    rhipjoint rfemur
    rfemur rtibia
    rtibia rfoot
    rfoot rtoes
    lowerback upperback
    upperback thorax
    thorax lowerneck lclavicle rclavicle
    lowerneck upperneck
    upperneck head
    lclavicle lhumerus
    lhumerus lradius
    lradius lwrist
    lwrist lhand lthumb
    lhand lfingers
    rclavicle rhumerus
    rhumerus rradius
    rradius rwrist
    rwrist rhand rthumb
    rhand rfingers
  end

#!OML:ASF I:\salsa\salsa 7_09\Patient 1\Session 1\dancermale.ASF
:FULLY-SPECIFIED
:DEGREES
1
root -11.305 17.6055 -0.293792 -36.6739 84.6373 -48.4969
lowerback -11.2584 1.37646 10.404
upperback -2.52694 0.834471 -3.06697
thorax 3.82673 0.562636 -9.07887
lowerneck -16.6006 -7.88243 -2.77423
upperneck 9.30486 50.1902 9.40671
head 35.4378 66.246 -179.742
rclavicle -5.51627e-015 -1.11319e-014
rhumerus -50.0041 28.4771 -121.53
rradius 111.349
rwrist -13.6901
rhand -23.3397 3.83018
rfingers 7.12502
rthumb 3.11507 -26.1268
lclavicle -5.51627e-015 -1.11319e-014
lhumerus -46.837 -38.6567 111.307
lradius 112.583
lwrist 38.2767
lhand -14.3 48.1985
lfingers 7.12502
lthumb 11.8399 77.8438
rfemur -15.9245 4.19838 22.3276
rtibia 14.0028
rfoot -13.1656 -10.8357
rtoes 1.64043
lfemur -10.7275 2.96779 -16.7909
ltibia 10.7544
lfoot -21.0441 8.31104
ltoes 14.4842
2
root -11.2851 17.6051 -0.268455 -36.4214 84.4828 -48.2831
lowerback -11.2632 1.9146 14.4772
upperback -2.64757 1.24157 -5.87974
thorax 3.89952 0.844255 -14.718
lowerneck -16.6499 -8.53425 1.12193
upperneck 9.52574 49.1143 10.3884
head 35.323 63.553 -179.986
rclavicle 1.08835e-014 3.18055e-014
rhumerus -48.4459 26.2916 -125.515
rradius 110.592
rwrist -13.0131
rhand -23.7044 3.76545
rfingers 7.12502
rthumb 2.76288 -26.1964
lclavicle 1.08835e-014 3.18055e-014
lhumerus -46.3419 -39.4969 105.322
lradius 112.059
lwrist 32.3338
lhand -1.09923 47.7858
lfingers 7.12502
lthumb 24.5371 76.2336
rfemur -15.8 4.14729 22.5366
rtibia 13.7958
rfoot -13.1545 -10.7612
rtoes 1.04108
lfemur -10.6867 2.87276 -16.5922
ltibia 10.7531
lfoot -20.9871 8.47855
ltoes 14.5903
3
root -11.2661 17.6042 -0.244892 -36.7115 84.3765 -48.603
lowerback -13.0493 0.890594 5.89453
upperback -1.48814 0.371211 0.685641
thorax 5.7824 0.34249 -2.53596
lowerneck -17.811 -6.96377 -6.27294
upperneck 9.35756 52.5252 8.42361
head 34.7412 66.8717 -180.868
rclavicle 2.54771e-015 3.09607e-014
rhumerus -50.2158 31.6409 -116.199
rradius 111.712
rwrist -14.2746
rhand -23.6376 3.47097
rfingers 7.12502
rthumb 2.82739 -26.49
lclavicle 2.54771e-015 3.09607e-014
lhumerus -41.746 -34.385 112.563
lradius 110.112
lwrist 28.7517
lhand 4.11727 46.9959
lfingers 7.12502
lthumb 29.5277 74.6677
rfemur -15.6466 4.23814 22.7456
rtibia 13.5941
rfoot -13.2144 -10.8069
rtoes 0.514286
lfemur -10.6754 2.68266 -16.3909
ltibia 10.8432
lfoot -21.0401 8.73772
ltoes 14.5778
4
root -11.2487 17.6037 -0.223584 -37.0578 84.2526 -48.9364
lowerback -13.0157 0.921581 6.0398
upperback -1.55495 0.39693 0.726014
thorax 5.69549 0.355421 -2.57097
lowerneck -17.8895 -7.01116 -5.78966
upperneck 9.44031 52.6716 8.41385
head 34.4525 65.6406 -181.15
rclavicle 1.68843e-014 -2.56184e-014
rhumerus -50.2612 31.4285 -116.342
rradius 111.573
rwrist -14.1879
rhand -23.5828 3.60918
rfingers 7.12502
rthumb 2.88031 -26.3511
lclavicle 1.68843e-014 -2.56184e-014
lhumerus -42.2639 -34.8127 113.029
lradius 110.404
lwrist 30.6518
lhand 0.314884 47.5488
lfingers 7.12502
lthumb 25.8919 75.8059
rfemur -15.4772 4.31765 22.9752
rtibia 13.4509
rfoot -13.256 -10.8116
rtoes 0.258414
lfemur -10.6234 2.63258 -16.1735
ltibia 10.9483
lfoot -21.1115 8.86546
ltoes 14.7136
5
root -11.229 17.6032 -0.201332 -37.1835 84.0703 -48.9646
lowerback -13.0521 1.08876 6.12239
upperback -1.54588 0.603803 0.729945
thorax 5.74466 0.460358 -2.57583
lowerneck -17.8786 -7.16472 -5.18872
upperneck 9.58265 52.7203 8.53061
head 34.1854 64.4826 -181.507
rclavicle 6.79129e-015 2.17172e-014
rhumerus -49.959 30.9017 -116.312
rradius 111.338
rwrist -14.0632
rhand -23.565 3.88698
rfingers 7.12502
rthumb 2.8975 -26.0731
lclavicle 6.79129e-015 2.17172e-014
lhumerus -42.9913 -35.8626 113.822
lradius 110.779
lwrist 33.4336
lhand -5.06346 47.8529
lfingers 7.12502
lthumb 20.7324 76.7655
rfemur -15.2447 4.4161 23.2379
rtibia 13.3653
rfoot -13.3069 -10.7617
rtoes 0.296788
lfemur -10.4262 2.71145 -15.9239
ltibia 10.9403
lfoot -21.1381 8.97744
ltoes 14.9247
6
root -11.205 17.6033 -0.179315 -37.6279 83.8685 -49.1849
lowerback -13.0707 1.41849 6.26981
upperback -1.49505 1.02183 0.601359
thorax 5.85186 0.673016 -2.71841
lowerneck -17.7711 -7.42425 -4.45341
upperneck 9.84967 52.6834 8.88591
head 33.8953 63.5566 -182.096
rclavicle -7.73397e-015 9.93923e-015
rhumerus -49.3979 29.8932 -116.201
rradius 111.083
rwrist -13.9348
rhand -23.5617 4.06083
rfingers 7.12502
rthumb 2.90063 -25.8992
lclavicle -7.73397e-015 9.93923e-015
lhumerus -43.539 -36.9772 114.198
lradius 110.767
lwrist 34.1297
lhand -6.06327 47.3429
lfingers 7.12502
lthumb 19.7715 76.3573
rfemur -14.8111 4.59784 23.5383
rtibia 13.2049
rfoot -13.3662 -10.7858
rtoes 0.215172
lfemur -10.0439 2.78753 -15.636
ltibia 10.857
lfoot -21.124 9.14963
ltoes 14.6206
7
root -11.1823 17.6022 -0.158581 -38.8543 83.7209 -50.1611
lowerback -12.9362 1.6042 6.48704
upperback -1.4537 1.24763 0.538269
thorax 5.84869 0.78943 -2.86787
lowerneck -17.7817 -7.5863 -3.81577
upperneck 10.0249 52.6971 9.08825
head 33.5807 62.4561 -182.624
rclavicle -9.50129e-015 5.96354e-016
rhumerus -49.1536 29.1912 -116.235
rradius 110.959
rwrist -13.8072
rhand -23.7572 4.0118
rfingers 7.12502
rthumb 2.71187 -25.9507
lclavicle -9.50129e-015 5.96354e-016
lhumerus -43.8856 -37.6092 114.314
lradius 110.811
lwrist 34.2569
lhand -6.17548 47.2798
lfingers 7.12502
lthumb 19.6637 76.3053
rfemur -14.3196 4.8125 23.8654
rtibia 13.0176
rfoot -13.4604 -10.9208
rtoes -0.213559
lfemur -9.6961 2.76956 -15.3251
ltibia 10.9482
lfoot -21.2595 9.21569
ltoes 14.6175
8
root -11.1641 17.5984 -0.138914 -40.0654 83.6698 -51.1762
lowerback -12.7371 1.62913 6.63154
upperback -1.39773 1.26968 0.579442
thorax 5.80202 0.802403 -2.90427
lowerneck -17.9384 -7.6686 -3.32871
upperneck 9.99739 52.687 9.00245
head 33.3195 61.1545 -182.887
rclavicle -7.38609e-015 -1.21259e-014
rhumerus -49.0871 28.8714 -116.278
rradius 110.896
rwrist -13.693
rhand -23.9083 3.88303
rfingers 7.12502
rthumb 2.5659 -26.0813
lclavicle -7.38609e-015 -1.21259e-014
lhumerus -43.8778 -37.8591 114.258
lradius 110.816
lwrist 34.3522
lhand -6.28668 47.2412
lfingers 7.12502
lthumb 19.5568 76.2776
rfemur -13.9763 4.97809 24.1098
rtibia 12.9775
rfoot -13.6539 -11.1016
rtoes -0.612853
lfemur -9.47746 2.65154 -15.1084
ltibia 11.1831
lfoot -21.4737 9.24464
ltoes 15.1276
9
root -11.1458 17.592 -0.121704 -40.959 83.6137 -51.9483
lowerback -12.596 1.64937 6.80743
upperback -1.37061 1.27938 0.6227
thorax 5.75629 0.809916 -2.95775
lowerneck -18.0609 -7.66925 -2.91458
upperneck 10.1318 52.9105 9.07749
head 33.1103 60.1304 -183.257
rclavicle 1.31571e-014 -1.98785e-015
rhumerus -49.1557 28.5435 -116.393
rradius 110.831
rwrist -13.4452
rhand -24.004 3.82647
rfingers 7.12502
rthumb 2.47349 -26.1389
lclavicle 1.31571e-014 -1.98785e-015
lhumerus -43.8018 -38.0555 114.197
lradius 110.784
lwrist 34.4031
lhand -6.23984 47.3946
lfingers 7.12502
lthumb 19.6018 76.4264
rfemur -13.7886 5.07271 24.3167
rtibia 13.0569
rfoot -13.885 -11.2347
rtoes -0.764317
lfemur -9.33921 2.50006 -14.9299
ltibia 11.3771
lfoot -21.627 9.3935
ltoes 15.3363
